<?xml version="1.0" encoding="utf-8"?>
<svg xmlns="http://www.w3.org/2000/svg" xmlns:xlink="http://www.w3.org/1999/xlink" version="1.1" id="Layer_1" x="0px" y="0px" viewBox="0 0 256 256" style="enable-background:new 0 0 256 256;" xml:space="preserve" width="512" height="512">
<style type="text/css">
	.st0{fill:#FFDF74;}
	.st1{fill:#FFD551;}
	.st2{fill:#F9BB32;}
	.st3{fill:#FFA730;}
	.st4{fill:#E58D23;}
	.st5{fill:#DB9C2E;}
	.st6{fill:#FFB74B;}
	.st7{fill:#BF6C0D;}
	.st8{fill:#A56021;}
	.st9{fill:#FFC34C;}
	.st10{fill:#CCC033;}
	.st11{fill:#FFF4C1;}
	.st12{fill:#FF624B;}
	.st13{fill:#FF4B34;}
	.st14{fill:#EACF32;}
	.st15{fill:#99AF17;}
	.st16{fill:#8C4C17;}
	.st17{fill:#FCE575;}
	.st18{fill:#FF9079;}
	.st19{fill:#FCF9DE;}
	.st20{fill:#FFD59A;}
	.st21{fill:#FFEACF;}
	.st22{fill:#FCDA4F;}
</style>
<g>
	<g>
		<g>
			<path d="M59.324,234.387c-1.224,0-2.44-0.318-3.521-0.942c-3.073-1.775-4.328-5.619-2.919-8.941     c1.723-4.062,2.596-8.368,2.596-12.799s-0.873-8.738-2.596-12.799c-1.409-3.323-0.154-7.167,2.919-8.941l0,0     c1.741-1.006,3.837-1.218,5.745-0.582c1.915,0.638,3.468,2.069,4.262,3.926c2.493,5.836,3.758,12.025,3.758,18.396     s-1.265,12.56-3.758,18.395c-0.794,1.858-2.348,3.289-4.262,3.927C60.824,234.268,60.072,234.387,59.324,234.387z      M59.315,193.105c-0.509,0-1.011,0.134-1.469,0.399l0,0c-1.31,0.756-1.813,2.356-1.198,3.805c1.938,4.569,2.92,9.412,2.92,14.395     s-0.982,9.826-2.92,14.395c-0.615,1.449-0.11,3.05,1.198,3.806c0.742,0.429,1.598,0.513,2.41,0.244     c0.818-0.273,1.456-0.861,1.796-1.656c2.274-5.325,3.428-10.974,3.428-16.789s-1.153-11.464-3.428-16.79     c-0.34-0.794-0.978-1.382-1.796-1.655C59.946,193.156,59.63,193.105,59.315,193.105z M56.825,191.734h0.01H56.825z"/>
		</g>
	</g>
	<g>
		<g>
			<path d="M76.731,244.432c-1.229,0-2.451-0.319-3.531-0.943c-0.011-0.006-0.021-0.012-0.03-0.018     c-3.135-1.828-4.362-5.827-2.795-9.119c3.388-7.121,5.105-14.741,5.105-22.647c0-7.906-1.718-15.526-5.106-22.648     c-1.566-3.292-0.338-7.291,2.797-9.119c0.01-0.006,0.019-0.012,0.028-0.017c1.699-0.981,3.748-1.209,5.621-0.628     c1.865,0.579,3.416,1.919,4.255,3.678c4.309,9.035,6.493,18.702,6.493,28.734c0,10.032-2.185,19.7-6.493,28.734     c-0.839,1.758-2.389,3.099-4.254,3.678C78.14,244.328,77.435,244.432,76.731,244.432z M75.262,239.959     c0.721,0.41,1.556,0.499,2.347,0.253c0.792-0.246,1.423-0.791,1.777-1.534c4.044-8.48,6.095-17.556,6.095-26.975     c0-9.418-2.051-18.494-6.095-26.974c-0.354-0.744-0.985-1.288-1.777-1.534c-0.791-0.247-1.626-0.157-2.347,0.253     c-0.007,0.004-0.015,0.008-0.021,0.013c-1.343,0.775-1.848,2.425-1.176,3.838c3.652,7.675,5.504,15.886,5.504,24.404     c0,8.519-1.852,16.73-5.503,24.404c-0.673,1.414-0.168,3.064,1.175,3.839C75.248,239.951,75.255,239.955,75.262,239.959z      M74.219,181.692h0.01H74.219z"/>
		</g>
	</g>
	<g>
		<g>
			<path class="st18" d="M226.208,85.167h-32v-30h32c4.418,0,8,3.582,8,8v14C234.208,81.585,230.627,85.167,226.208,85.167z"/>
		</g>
	</g>
	<g>
		<g>
			<path class="st12" d="M226.208,145.833h-32v-30h32c4.418,0,8,3.582,8,8v14C234.208,142.252,230.627,145.833,226.208,145.833z"/>
		</g>
	</g>
	<g>
		<g>
			<path class="st13" d="M226.208,205.167h-32v-30h32c4.418,0,8,3.582,8,8v14C234.208,201.585,230.627,205.167,226.208,205.167z"/>
		</g>
	</g>
	<g>
		<g>
			<path class="st4" d="M203.219,248H52.031c-7.956,0-14.406-6.45-14.406-14.406V22.406C37.625,14.45,44.075,8,52.031,8h151.188     c7.956,0,14.406,6.45,14.406,14.406v211.188C217.625,241.55,211.175,248,203.219,248z"/>
		</g>
	</g>
	<g>
		<g>
			<path class="st7" d="M52.031,248h25.594V8H52.031c-7.956,0-14.406,6.45-14.406,14.406v211.188     C37.625,241.55,44.075,248,52.031,248z"/>
		</g>
	</g>
	<g>
		<g>
			<path class="st8" d="M65.625,233.594V22.406c0-7.134,5.192-13.042,12-14.189V8H52.031c-7.956,0-14.406,6.45-14.406,14.406     v211.188c0,7.956,6.45,14.406,14.406,14.406h25.594v-0.217C70.817,246.636,65.625,240.729,65.625,233.594z"/>
		</g>
	</g>
	<g>
		<g>
			<path class="st6" d="M51.792,80.167h-20c-5.523,0-10-4.477-10-10v0c0-5.523,4.477-10,10-10h20c5.523,0,10,4.477,10,10v0     C61.792,75.69,57.315,80.167,51.792,80.167z"/>
		</g>
	</g>
	<g>
		<g>
			<path class="st6" d="M51.792,140.167h-20c-5.523,0-10-4.477-10-10v0c0-5.523,4.477-10,10-10h20c5.523,0,10,4.477,10,10v0     C61.792,135.69,57.315,140.167,51.792,140.167z"/>
		</g>
	</g>
	<g>
		<g>
			<path class="st6" d="M51.792,200.167h-20c-5.523,0-10-4.477-10-10v0c0-5.523,4.477-10,10-10h20c5.523,0,10,4.477,10,10v0     C61.792,195.69,57.315,200.167,51.792,200.167z"/>
		</g>
	</g>
	<g>
		<g>
			<path class="st3" d="M41.792,70.167c0-5.523,4.477-10,10-10h-20c-5.523,0-10,4.477-10,10c0,5.523,4.477,10,10,10h20     C46.269,80.167,41.792,75.689,41.792,70.167z"/>
		</g>
	</g>
	<g>
		<g>
			<path class="st3" d="M41.792,130.167c0-5.523,4.477-10,10-10h-20c-5.523,0-10,4.477-10,10c0,5.523,4.477,10,10,10h20     C46.269,140.167,41.792,135.689,41.792,130.167z"/>
		</g>
	</g>
	<g>
		<g>
			<path class="st3" d="M41.792,190.167c0-5.523,4.477-10,10-10h-20c-5.523,0-10,4.477-10,10c0,5.523,4.477,10,10,10h20     C46.269,200.167,41.792,195.689,41.792,190.167z"/>
		</g>
	</g>
	<g>
		<g>
			<path class="st12" d="M178.307,185.668H93.111v-8.785c0-15.74,12.76-28.5,28.5-28.5h28.196c15.74,0,28.5,12.76,28.5,28.5V185.668     z"/>
		</g>
	</g>
	<g>
		<g>
			<path class="st13" d="M105.111,181.083c0-15.74,12.76-28.5,28.5-28.5h28.196c1.076,0,2.137,0.062,3.181,0.178     c-4.396-2.772-9.601-4.378-15.181-4.378h-28.196c-15.74,0-28.5,12.76-28.5,28.5v8.785h12V181.083z"/>
		</g>
	</g>
	<g>
		<g>
			<path class="st16" d="M111.318,121.034h9.745V86.237c0-3.219-2.609-5.828-5.828-5.828h-3.917c-3.219,0-5.828,2.609-5.828,5.828     v28.969C105.49,118.424,108.1,121.034,111.318,121.034z"/>
		</g>
	</g>
	<g>
		<g>
			<path class="st16" d="M160.238,77.423h-3.966c-3.205,0-5.804,2.598-5.804,5.804v5.053c6.281,4.672,10.35,12.15,10.35,20.579v9.16     c2.933-0.291,5.223-2.765,5.223-5.774V83.227C166.041,80.022,163.443,77.423,160.238,77.423z"/>
		</g>
	</g>
	<g>
		<g>
			<circle class="st21" cx="161.398" cy="111.062" r="8.29"/>
		</g>
	</g>
	<g>
		<g>
			<circle class="st20" cx="109.166" cy="114.062" r="8.29"/>
		</g>
	</g>
	<g>
		<g>
			<path class="st21" d="M135.709,164.051L135.709,164.051c-6.521,0-11.808-5.286-11.808-11.808v-28.157h23.615v28.157     C147.517,158.764,142.23,164.051,135.709,164.051z"/>
		</g>
	</g>
	<g>
		<g>
			<path class="st20" d="M132.076,152.243v-28.156h-8.174v28.156c0,6.521,5.286,11.808,11.808,11.808l0,0     c1.437,0,2.814-0.257,4.087-0.727C135.29,161.661,132.076,157.328,132.076,152.243z"/>
		</g>
	</g>
	<g>
		<g>
			<path class="st21" d="M135.766,143.577L135.766,143.577c-14.157,0-25.633-11.476-25.633-25.633v-13.049     c0-14.156,11.476-25.633,25.633-25.633h0c14.156,0,25.633,11.476,25.633,25.633v13.049     C161.398,132.101,149.922,143.577,135.766,143.577z"/>
		</g>
	</g>
	<g>
		<g>
			<path class="st20" d="M119.129,114.717v-12.724c0-0.971,0.054-1.928,0.16-2.871c0.163-1.459,1.414-2.554,2.882-2.554h37.844     c-3.457-10.069-13.007-17.306-24.249-17.306c-1.101,0-2.184,0.072-3.248,0.206c0.002-0.001,0.003-0.002,0.005-0.003     c-0.082,0.01-0.163,0.026-0.244,0.037c-0.27,0.037-0.54,0.076-0.807,0.121c-0.13,0.022-0.258,0.047-0.387,0.071     c-0.237,0.044-0.473,0.09-0.707,0.14c-0.136,0.029-0.271,0.06-0.406,0.091c-0.228,0.053-0.455,0.109-0.681,0.168     c-0.132,0.034-0.265,0.069-0.396,0.105c-0.234,0.065-0.466,0.135-0.697,0.206c-0.118,0.036-0.236,0.071-0.354,0.109     c-0.277,0.09-0.551,0.186-0.824,0.285c-0.067,0.025-0.136,0.046-0.203,0.072c-0.339,0.127-0.675,0.26-1.007,0.4     c-0.087,0.037-0.171,0.077-0.258,0.114c-0.243,0.106-0.485,0.214-0.725,0.327c-0.12,0.057-0.238,0.116-0.356,0.175     c-0.203,0.1-0.406,0.202-0.606,0.307c-0.127,0.067-0.253,0.135-0.378,0.204c-0.19,0.104-0.379,0.21-0.566,0.319     c-0.126,0.073-0.251,0.146-0.375,0.221c-0.188,0.113-0.373,0.23-0.558,0.348c-0.117,0.075-0.234,0.148-0.35,0.225     c-0.204,0.135-0.404,0.274-0.603,0.414c-0.092,0.065-0.185,0.127-0.276,0.192c-0.282,0.204-0.56,0.414-0.834,0.629     c-0.085,0.067-0.167,0.137-0.251,0.205c-0.191,0.154-0.381,0.309-0.567,0.468c-0.111,0.095-0.22,0.193-0.329,0.29     c-0.155,0.138-0.31,0.276-0.462,0.417c-0.115,0.107-0.228,0.216-0.341,0.324c-0.142,0.137-0.283,0.276-0.422,0.417     c-0.113,0.114-0.224,0.228-0.335,0.344c-0.136,0.143-0.269,0.288-0.402,0.433c-0.107,0.117-0.214,0.234-0.318,0.353     c-0.136,0.155-0.269,0.314-0.402,0.473c-0.095,0.113-0.191,0.225-0.284,0.339c-0.194,0.241-0.384,0.486-0.569,0.734     c-0.096,0.129-0.189,0.26-0.283,0.39c-0.13,0.18-0.26,0.36-0.385,0.544c-0.092,0.135-0.18,0.272-0.269,0.409     c-0.104,0.16-0.209,0.319-0.31,0.482c-0.09,0.145-0.178,0.292-0.266,0.439c-0.094,0.158-0.187,0.317-0.278,0.478     c-0.086,0.151-0.17,0.303-0.252,0.456c-0.087,0.162-0.172,0.325-0.256,0.489c-0.079,0.154-0.158,0.309-0.234,0.465     c-0.083,0.17-0.161,0.342-0.24,0.514c-0.07,0.153-0.142,0.305-0.21,0.459c-0.091,0.208-0.176,0.42-0.261,0.631     c-0.093,0.23-0.182,0.462-0.269,0.695c-0.071,0.191-0.144,0.381-0.21,0.575h0.002c-0.896,2.611-1.386,5.411-1.386,8.326v12.74     c0,14.102,11.26,25.795,25.361,25.941c4.534,0.047,8.799-1.084,12.51-3.104c-1.119,0.141-2.26,0.211-3.42,0.203     C130.444,140.579,119.129,128.858,119.129,114.717z"/>
		</g>
	</g>
	<g>
		<g>
			<path class="st8" d="M151.555,92.797h-42.889c-4.795,0-8.682-3.887-8.682-8.682V78.28c0-4.795,3.887-8.682,8.682-8.682h42.889     c4.795,0,8.682,3.887,8.682,8.682v5.835C160.238,88.909,156.351,92.797,151.555,92.797z"/>
		</g>
	</g>
	<g>
		<g>
			<g>
				<circle class="st8" cx="121.257" cy="111.42" r="3.192"/>
			</g>
		</g>
		<g>
			<g>
				<circle class="st8" cx="150.275" cy="111.42" r="3.192"/>
			</g>
		</g>
	</g>
	<g>
		<g>
			<path class="st16" d="M114.985,84.114V78.28c0-4.795,3.887-8.682,8.682-8.682h-15c-4.795,0-8.682,3.887-8.682,8.682v5.835     c0,4.795,3.887,8.682,8.682,8.682h15C118.872,92.797,114.985,88.909,114.985,84.114z"/>
		</g>
	</g>
	<g>
		<g>
			<circle class="st8" cx="93" cy="233.033" r="9"/>
		</g>
	</g>
	<g>
		<g>
			<circle class="st13" cx="118.065" cy="175.167" r="9"/>
		</g>
	</g>
	<g>
		<g>
			<path class="st3" d="M209.625,236.594c-1.657,0-3-1.343-3-3V125.04c0-1.657,1.343-3,3-3s3,1.343,3,3v108.555     C212.625,235.251,211.282,236.594,209.625,236.594z"/>
		</g>
	</g>
</g>
</svg>
