<svg height="492pt" viewBox="0 -48 492.1 492" width="492pt" xmlns="http://www.w3.org/2000/svg"><path d="m486.101562 39.25v70.5h-66.5v-70.5c0-17.601562 13.796876-32.199219 31.398438-33.199219.601562 0 1.300781-.101562 1.898438-.101562 18.300781.101562 33.203124 14.902343 33.203124 33.300781zm0 0" fill="#cc7350"/><path d="m451 6.050781c-17.601562 1.097657-31.398438 15.597657-31.398438 33.199219v134.101562l-.101562 147.398438c0 5.300781-.699219 10.601562-2.199219 15.699219-6.699219 22.300781-27 38.5-51 38.5-1.101562 0-2.199219 0-3.300781-.097657-27.898438-1.703124-50.101562-25.402343-50.101562-54.402343v-35.300781h-148.699219c-.097657-.097657-.300781-.097657-.398438-.199219-2.902343-1.199219-5.902343-2.300781-8.902343-3.300781l.300781-41.597657c29.402343-18.699219 38-57.699219 19.300781-87-4.800781-7.5-11.101562-13.902343-18.5-18.800781l.699219-90.601562c.199219-20.796876 17.199219-37.597657 38-37.597657zm0 0" fill="#e48e66"/><path d="m363 374.851562v.097657h-130.898438c-5.203124-39.898438-31-74-67.902343-89.800781h148.699219v35.300781c0 29 22.101562 52.699219 50.101562 54.402343zm0 0" fill="#cc7350"/><path d="m164.199219 285.148438c36.902343 15.800781 62.800781 50 67.902343 89.800781v.101562c.597657 4.800781.898438 9.597657.898438 14.398438h-226.898438c0-62.699219 50.898438-113.5 113.5-113.5 12 0 23.898438 1.902343 35.199219 5.601562 3 1 6 2.097657 8.898438 3.300781.199219.097657.300781.199219.5.296876zm0 0" fill="#f8ec7d"/><g fill="#63316d"><path d="m196.199219 100.851562h44.402343c3.296876 0 6-2.703124 6-6 0-3.300781-2.703124-6-6-6h-44.402343c-3.300781 0-6 2.699219-6 6 0 3.296876 2.699219 6 6 6zm0 0"/><path d="m372.898438 151.449219h-101.597657c-3.300781 0-6 2.699219-6 6s2.699219 6 6 6h101.5c3.300781 0 6-2.699219 6-6s-2.601562-6-5.902343-6zm0 0"/><path d="m222.199219 157.449219c0 3.300781 2.699219 6 6 6h20.699219c3.300781 0 6-2.699219 6-6s-2.699219-6-6-6h-20.699219c-3.398438 0-6 2.601562-6 6zm0 0"/><path d="m196.199219 163.449219h9.101562c3.300781 0 6-2.699219 6-6s-2.699219-6-6-6h-9.101562c-3.300781 0-6 2.699219-6 6s2.699219 6 6 6zm0 0"/><path d="m372.898438 213.949219h-7.796876c-3.300781 0-6 2.699219-6 6s2.699219 6 6 6h7.796876c3.300781 0 6-2.699219 6-6s-2.699219-6-6-6zm0 0"/><path d="m342.601562 213.949219h-25.601562c-3.300781 0-6 2.699219-6 6s2.699219 6 6 6h25.601562c3.296876 0 6-2.699219 6-6s-2.703124-6-6-6zm0 0"/><path d="m297.101562 213.949219h-100.902343c-3.300781 0-6 2.699219-6 6s2.699219 6 6 6h100.902343c3.296876 0 6-2.699219 6-6s-2.703124-6-6-6zm0 0"/><path d="m452.898438.0507812c-.5 0-.898438 0-1.398438 0-.199219 0-.300781 0-.5 0h-256.199219c-24.101562.0976568-43.699219 19.4999998-44 43.5976568l-.699219 80.5c-34.703124-15.898438-75.601562-.699219-91.601562 34-16 34.703124-.699219 75.601562 34 91.601562 17.898438 8.199219 38.5 8.398438 56.601562.5l-.203124 23.601562c-64-16.203124-129 22.5-145.199219 86.398438-2.398438 9.601562-3.699219 19.5-3.699219 29.398438 0 3.300781 2.699219 6 6 6h226.898438c3.300781 0 6-2.699219 6-6 0-2.796876-.097657-5.699219-.296876-8.5h124.199219c.300781 0 .5 0 .800781-.097657.796876 0 1.597657.097657 2.5.097657 26.296876 0 49.097657-17.199219 56.699219-42.699219 1.699219-5.699219 2.5-11.5 2.5-17.5l.097657-147.398438v-57.800781h60.703124c3.296876 0 6-2.699219 6-6v-70.5c0-21.699219-17.601562-39.1992188-39.203124-39.1992188zm-388.597657 186.8007808c0-31.5 25.597657-57 57.097657-57 11.101562 0 22 3.199219 31.300781 9.296876 0 0 .101562.101562.101562.101562 26.300781 17.398438 33.5 52.699219 16.199219 79-17.398438 26.300781-52.699219 33.5-79 16.199219-16-10.5-25.699219-28.398438-25.699219-47.597657zm266.5 182.097657h-93.5c-5.601562-31.597657-23.5-59.597657-49.902343-77.800781h119.5v29.300781c0 19 8.800781 36.902343 23.902343 48.5zm-318.5 14.5c3.300781-59.300781 54.097657-104.597657 113.398438-101.300781 9.300781.5 18.5 2.300781 27.402343 5.203124 2.398438.796876 4.796876 1.699219 7.199219 2.597657.699219.5 1.597657.902343 2.5 1 34.5 15.199219 58.597657 47.300781 63.5 84.699219v.203124c.300781 2.5.5 5 .699219 7.5h-214.699219zm401.300781-344.199219v134.101562l-.101562 147.398438c0 4.699219-.601562 9.5-1.898438 14-6.203124 20.5-24.300781 34.199219-45.300781 34.199219-1 0-2 0-2.902343-.097657-24.898438-1.5-44.398438-22.800781-44.398438-48.402343v-35.300781c0-3.296876-2.699219-6-6-6h-147.601562c-1.5-.597657-3-1.199219-4.5-1.699219l.300781-34.097657c31.101562-22 38.601562-65.101562 16.601562-96.203124-4.300781-6.097657-9.601562-11.5-15.601562-15.898438l.699219-87.398438c.203124-17.5 14.5-31.601562 32-31.703124h229.800781c-7.199219 7.203124-11.097657 16.902343-11.097657 27.101562zm66.5 64.5h-54.5v-64.5c0-14.398438 11.199219-26.398438 25.597657-27.199219h1.601562c15 0 27.199219 12.199219 27.300781 27.199219zm0 0"/><path d="m372.898438 88.851562h-12.796876c-3.300781 0-6 2.699219-6 6 0 3.296876 2.699219 6 6 6h12.796876c3.300781 0 6-2.703124 6-6 0-3.300781-2.699219-6-6-6zm0 0"/><path d="m262.699219 100.851562h75c3.300781 0 6-2.703124 6-6 0-3.300781-2.699219-6-6-6h-75c-3.300781 0-6 2.699219-6 6 0 3.296876 2.699219 6 6 6zm0 0"/></g></svg>