<svg xmlns="http://www.w3.org/2000/svg" xmlns:xlink="http://www.w3.org/1999/xlink" width="618" height="771" viewBox="0 0 618 771">
  <defs>
    <filter id="SAN_ISIDRO_UNIDO" x="-20.5" y="667.5" width="659" height="128" filterUnits="userSpaceOnUse">
      <feOffset dy="4" input="SourceAlpha"/>
      <feGaussianBlur stdDeviation="6.5" result="blur"/>
      <feFlood flood-opacity="0.161"/>
      <feComposite operator="in" in2="blur"/>
      <feComposite in="SourceGraphic"/>
    </filter>
    <clipPath id="clip-SanIsidroUnidoLogoTransparente1">
      <rect width="618" height="771"/>
    </clipPath>
  </defs>
  <g id="SanIsidroUnidoLogoTransparente1" clip-path="url(#clip-SanIsidroUnidoLogoTransparente1)">
    <path id="Trazado_45" data-name="Trazado 45" d="M1287.2,790.9c-15.126,16.1-35.1,30.786-57.175,43.939a19,19,0,0,1,.288,3.064c0,14.309-16.483,25.9-36.829,25.9a49.9,49.9,0,0,1-15-2.255c-5.467,2.486-10.893,4.885-16.359,7.2A955.691,955.691,0,0,1,1031,912.858c40.2,2.688,74.069,1.359,102.677-2.688l20.223,149.391,2.918,23.01v.029c0-.173,1.151-.347,1.644-.521,2.507-.9,5.056-1.792,7.481-2.717,1.028-.4,2.178-.781,3.206-1.185,2.8-1.1,5.59-2.226,8.3-3.382.576-.26,1.192-.491,1.768-.723,3.247-1.416,6.453-2.862,9.577-4.336.041,0,.041-.029.082-.029,3.288-1.561,6.495-3.18,9.66-4.827l.247-28.011.534-58.479,9.947,50.963,5.179,26.45h0l.123-.087a192.1,192.1,0,0,0,25.361-18.732l4.275-52.119,2.836-34.746,4.193-51.136,3.412-41.886C1286.09,824.837,1287.2,790.9,1287.2,790.9Z" transform="translate(-723.561 -432.62)" fill="#ab5153"/>
    <path id="Trazado_46" data-name="Trazado 46" d="M356.581,985.94l4.432,54.835a193.937,193.937,0,0,0,25.937,19.441l5.171-26.589,9.6-49.489.493,56.9.246,28.217A305.781,305.781,0,0,0,443.79,1087.3l3.16-23.16,20.233-148.611c28.522,4.1,62.38,5.405,102.517,2.7,0,0-64.514-15.779-132.106-44.868q-11.758-5.056-23.516-10.636a50.79,50.79,0,0,1-10.219,1.046c-20.315,0-36.771-11.653-36.771-26.037a.713.713,0,0,1,.041-.291C346.609,824.8,328.1,810.856,313.9,795.6c0,0,1.149,34.116,32.668,66.576l3.365,41.584,4.432,54.4Z" transform="translate(-262.66 -437.32)" fill="#619f42"/>
    <path id="Trazado_49" data-name="Trazado 49" d="M426.882,526.926a37.4,37.4,0,0,1-3.164,15.3c1.431-.8,2.863-1.722,4.369-2.483h0l5.65-88.839L446.92,530.41h0c4.143-1.882,8.663-3.685,13.108-5.367.3-.12,1.431-.24,1.733-.32,4.369-1.642,9.642-3.164,14.162-4.606h0l8.738-223.339c27.157-19.426,54.314-35.888,80.039-45.741a9.3,9.3,0,0,1-.979-.32s.188,0,.678-.04c-13.861-.681-214.768-6.649-255.9,207.758,0,0,29.643-33.765,72.355-74.66l11.639,107.264c.226,0,.414-.04.64-.04C411.779,491,426.882,507.1,426.882,526.926Z" transform="translate(-257.661 -148.046)" fill="#00a8de"/>
    <path id="Trazado_48" data-name="Trazado 48" d="M478.439,920.9a34.606,34.606,0,0,0,9.716-1.4,34.99,34.99,0,0,0-9.755-68.6c-.234,0-.468.039-.7.039a34.907,34.907,0,0,0-34.259,34.571c0,.117-.039.273-.039.39A35.078,35.078,0,0,0,478.439,920.9Z" transform="translate(-325.36 -520.98)" fill="#70bc4a"/>
    <path id="Trazado_50" data-name="Trazado 50" d="M986.29,251.112c25.714,10.188,53.8,27.167,80.939,47.293l10.188,231.58h0a162.627,162.627,0,0,1,26.578,12.341h-.3l13.233-83.819,4.1,67.337c5.489-12.341,16.917-21.038,30.225-21.038a30.192,30.192,0,0,1,10.075,1.615l11.955-114.175c40.6,40.584,68.42,73.383,68.42,73.383-41.09-221.723-241.576-215.553-255.41-214.849-.489.041-.789.041-.789.041C985.763,250.905,986.026,251.029,986.29,251.112Z" transform="translate(-678.061 -148.146)" fill="#ffaf3a"/>
    <path id="Trazado_47" data-name="Trazado 47" d="M1340.194,883.648A34.942,34.942,0,0,0,1336.6,899a36.382,36.382,0,0,0,.586,6.211A34.983,34.983,0,0,0,1406.6,899a36.246,36.246,0,0,0-.273-4.141,35.061,35.061,0,0,0-24.258-29.258,34.942,34.942,0,0,0-41.875,18.047Z" transform="translate(-910.561 -540.72)" fill="#d46164"/>
    <path id="Trazado_51" data-name="Trazado 51" d="M531,211.2a35,35,0,1,0-35-34.98A34.983,34.983,0,0,0,531,211.2Z" transform="translate(-377.961 -89.96)" fill="#31bae5"/>
    <path id="Trazado_52" data-name="Trazado 52" d="M1340.194,883.648A34.942,34.942,0,0,0,1336.6,899a36.382,36.382,0,0,0,.586,6.211A34.983,34.983,0,0,0,1406.6,899a36.246,36.246,0,0,0-.273-4.141,35.061,35.061,0,0,0-24.258-29.258,34.942,34.942,0,0,0-41.875,18.047Z" transform="translate(-908.561 -812.76)" fill="#f3be6f"/>
    <g transform="matrix(1, 0, 0, 1, 0, 0)" filter="url(#SAN_ISIDRO_UNIDO)">
      <text id="SAN_ISIDRO_UNIDO-2" data-name="SAN ISIDRO UNIDO" transform="translate(0 684)" fill="#ab5153" stroke="#d92323" stroke-width="1" font-size="55" font-family="SegoeUI, Segoe UI"><tspan x="68.778" y="59">SAN ISIDRO UNIDO</tspan></text>
    </g>
  </g>
</svg>
