<svg xmlns="http://www.w3.org/2000/svg" xmlns:xlink="http://www.w3.org/1999/xlink" width="2732" height="2732" viewBox="0 0 2732 2732">
  <defs>
    <filter id="SAN_ISIDRO_UNIDO" x="-20.5" y="2128.5" width="2773" height="241" filterUnits="userSpaceOnUse">
      <feOffset dy="4" input="SourceAlpha"/>
      <feGaussianBlur stdDeviation="6.5" result="blur"/>
      <feFlood flood-opacity="0.161"/>
      <feComposite operator="in" in2="blur"/>
      <feComposite in="SourceGraphic"/>
    </filter>
    <clipPath id="clip-SanIsidroUnidoSplashScreen">
      <rect width="2732" height="2732"/>
    </clipPath>
  </defs>
  <g id="SanIsidroUnidoSplashScreen" clip-path="url(#clip-SanIsidroUnidoSplashScreen)">
    <rect width="2732" height="2732" fill="#fff"/>
    <path id="Trazado_16" data-name="Trazado 16" d="M410.9,1384.8a312.788,312.788,0,0,0,7.1,65.8l-5.5-95.5A292.346,292.346,0,0,0,410.9,1384.8Z" transform="translate(420.193 668.306)" fill="none"/>
    <path id="Trazado_19" data-name="Trazado 19" d="M504.6,1614.6c7.8,8.7,16,17.2,24.6,25.4L528,1444.2Z" transform="translate(563.22 167.916)" fill="none"/>
    <path id="Trazado_23" data-name="Trazado 23" d="M1414.7,1755.6c-7.6,5.1-15.4,10.1-23.3,15C1399.4,1765.7,1407.1,1760.7,1414.7,1755.6Z" transform="translate(1245.455 389.707)" fill="#d5d7d8"/>
    <path id="Trazado_24" data-name="Trazado 24" d="M1359.5,1789c-5.9,3.2-11.9,6.4-17.9,9.4C1347.6,1795.4,1353.6,1792.2,1359.5,1789Z" transform="translate(1263.641 747.199)" fill="#d5d7d8"/>
    <path id="Trazado_28" data-name="Trazado 28" d="M1387.2,1773.1q-9.9,6-20.1,11.7Q1377.3,1779.1,1387.2,1773.1Z" transform="translate(1254.498 414.485)" fill="#d5d7d8"/>
    <g transform="matrix(1, 0, 0, 1, 0, 0)" filter="url(#SAN_ISIDRO_UNIDO)">
      <text id="SAN_ISIDRO_UNIDO-2" data-name="SAN ISIDRO UNIDO" transform="translate(0 2145)" fill="#ab5153" stroke="#d92323" stroke-width="1" font-size="140" font-family="ArialMT, Arial"><tspan x="716.483" y="127">SAN ISIDRO UNIDO</tspan></text>
    </g>
    <path id="Trazado_30" data-name="Trazado 30" d="M576,301.2a80,80,0,1,0-80-79.955A79.96,79.96,0,0,0,576,301.2Z" transform="translate(515.985 364.8)" fill="#31bae5"/>
    <path id="Trazado_29" data-name="Trazado 29" d="M541.387,939.393a114.871,114.871,0,0,1-6.224,38.133c2.816-2,5.631-4.293,8.6-6.189h0l11.115-221.412,25.934,198.153h0c8.151-4.692,17.042-9.184,25.786-13.376.593-.3,2.816-.6,3.409-.8,8.6-4.093,18.969-7.886,27.86-11.48h0L655.052,365.8c53.424-48.415,106.848-89.443,157.456-114a15.733,15.733,0,0,1-1.926-.8s.37,0,1.334-.1c-27.268-1.7-422.5-16.571-503.415,517.793,0,0,58.314-84.153,142.34-186.074l22.9,267.332c.445,0,.815-.1,1.26-.1C511.674,849.85,541.387,889.98,541.387,939.393Z" transform="translate(594.484 391.474)" fill="#00a8de"/>
    <path id="Trazado_31" data-name="Trazado 31" d="M986.9,251.838c45.667,25.39,95.54,67.707,143.744,117.868l18.093,577.162h0c16.023,7.844,31.646,18.372,47.2,30.757h-.534l23.5-208.9,7.277,167.823c9.748-30.757,30.044-52.432,53.678-52.432a39.864,39.864,0,0,1,17.893,4.025l21.231-284.556C1391.094,704.733,1440.5,786.477,1440.5,786.477c-72.974-552.6-429.028-537.219-453.6-535.465a13.164,13.164,0,0,1-1.4.1C985.967,251.322,986.435,251.631,986.9,251.838Z" transform="translate(413.484 391.374)" fill="#ffaf3a"/>
    <path id="Trazado_32" data-name="Trazado 32" d="M1380.1,301.2a80,80,0,1,0-80-79.955A79.96,79.96,0,0,0,1380.1,301.2Z" transform="translate(336.892 364.8)" fill="#f6ad46"/>
    <path id="Trazado_35" data-name="Trazado 35" d="M1543.016,790.9c-30.229,35.161-70.152,67.229-114.265,95.951a45.236,45.236,0,0,1,.575,6.691c0,31.247-32.941,56.561-73.6,56.561a91.954,91.954,0,0,1-29.983-4.924c-10.926,5.429-21.769,10.668-32.695,15.718-134.473,62.431-262.045,96.33-262.045,96.33,80.339,5.871,148.027,2.967,205.2-5.87l40.416,326.233,5.832,50.248v.063c0-.379,2.3-.758,3.286-1.137,5.011-1.957,10.1-3.914,14.951-5.934,2.054-.884,4.354-1.7,6.407-2.588,5.586-2.4,11.172-4.861,16.594-7.386,1.15-.568,2.382-1.073,3.532-1.578,6.49-3.093,12.9-6.249,19.14-9.469.082,0,.082-.063.164-.063,6.572-3.409,12.979-6.944,19.3-10.542l.493-61.169,1.068-127.7,19.879,111.29,10.351,57.76h0l.246-.189a388.15,388.15,0,0,0,50.684-40.905l8.543-113.816,5.668-75.877,8.379-111.669,6.818-91.469C1540.8,865.009,1543.016,790.9,1543.016,790.9Z" transform="translate(367.984 512.1)" fill="#ab5153"/>
    <path id="Trazado_33" data-name="Trazado 33" d="M396.493,1211.256,405.07,1331a382.944,382.944,0,0,0,50.191,42.454l10.007-58.065,18.583-108.071.953,124.252.476,61.619a559.4,559.4,0,0,0,79.972,39.408l6.115-50.577,39.152-324.529c55.194,8.948,120.712,11.8,198.381,5.9,0,0-124.842-34.458-255.64-97.98q-22.753-11.042-45.505-23.226a87.525,87.525,0,0,1-19.775,2.284c-39.311,0-71.157-25.447-71.157-56.859a1.741,1.741,0,0,1,.079-.634c-39.708-27.6-75.525-58.065-103-91.381,0,0,2.224,74.5,63.215,145.384l6.512,90.809,8.577,118.8Z" transform="translate(589.084 507.4)" fill="#619f42"/>
    <path id="Trazado_34" data-name="Trazado 34" d="M523.489,1010.9a79.1,79.1,0,0,0,22.207-3.211A79.977,79.977,0,0,0,523.4,850.9c-.535,0-1.07.089-1.605.089a79.788,79.788,0,0,0-78.306,79.019c0,.268-.089.625-.089.892A80.179,80.179,0,0,0,523.489,1010.9Z" transform="translate(568.585 383.1)" fill="#70b84b"/>
    <path id="Trazado_36" data-name="Trazado 36" d="M1344.814,908.911A79.864,79.864,0,0,0,1336.6,944a83.128,83.128,0,0,0,1.339,14.2A79.962,79.962,0,0,0,1496.6,944a82.9,82.9,0,0,0-.625-9.464,80.139,80.139,0,0,0-55.446-66.875,79.868,79.868,0,0,0-95.714,41.25Z" transform="translate(300.384 371)" fill="#ce6769"/>
  </g>
</svg>
