<svg version="1.1" xmlns="http://www.w3.org/2000/svg" xmlns:xlink="http://www.w3.org/1999/xlink" style="display: none;">
<defs>
<g id="icon-image">
	<path class="path1" d="M0 4v26h32v-26h-32zM30 28h-28v-22h28v22zM22 11c0-1.657 1.343-3 3-3s3 1.343 3 3c0 1.657-1.343 3-3 3-1.657 0-3-1.343-3-3zM28 26h-24l6-16 8 10 4-3z"></path>
</g>
<g id="icon-play">
	<path class="path1" d="M30.662 5.003c-4.488-0.645-9.448-1.003-14.662-1.003-5.214 0-10.174 0.358-14.662 1.003-0.86 3.366-1.338 7.086-1.338 10.997 0 3.911 0.477 7.63 1.338 10.997 4.489 0.645 9.448 1.003 14.662 1.003 5.214 0 10.174-0.358 14.662-1.003 0.86-3.366 1.338-7.086 1.338-10.997 0-3.911-0.477-7.63-1.338-10.997zM12 22v-12l10 6-10 6z"></path>
</g>
<g id="icon-cart">
	<path class="path1" d="M30.549 6.077c-1.062-0.303-2.169 0.312-2.473 1.374l-0.157 0.549h-18.654l-0.281-2.248c-0.125-1.001-0.976-1.752-1.985-1.752h-5c-1.105 0-2 0.895-2 2s0.895 2 2 2h3.234l1.781 14.248c0.125 1.001 0.976 1.752 1.985 1.752h17c0.893 0 1.678-0.592 1.923-1.451l4-14c0.303-1.062-0.312-2.169-1.374-2.473zM16 16v-2h4v2h-4zM20 18v2h-4v-2h4zM16 12v-2h4v2h-4zM9.516 10h4.484v2h-4.234l-0.25-2zM10.016 14h3.984v2h-3.734l-0.25-2zM10.516 18h3.484v2h-3.234l-0.25-2zM24.491 20h-2.491v-2h3.063l-0.571 2zM25.634 16h-3.634v-2h4.206l-0.571 2zM26.777 12h-4.777v-2h5.349l-0.571 2zM8 29c0-1.657 1.343-3 3-3s3 1.343 3 3c0 1.657-1.343 3-3 3-1.657 0-3-1.343-3-3zM20 29c0-1.657 1.343-3 3-3s3 1.343 3 3c0 1.657-1.343 3-3 3-1.657 0-3-1.343-3-3z"></path>
</g>
<g id="icon-phone">
	<path class="path1" d="M22 20c-2 2-2 4-4 4s-4-2-6-4-4-4-4-6 2-2 4-4-4-8-6-8-6 6-6 6c0 4 4.109 12.109 8 16s12 8 16 8c0 0 6-4 6-6s-6-8-8-6z"></path>
</g>
<g id="icon-camera">
<path class="path1" d="M16 12.906a4.47 4.47 0 0 0 0 8.938 4.47 4.47 0 0 0 4.469-4.469A4.47 4.47 0 0 0 16 12.906zm0 7.063a2.577 2.577 0 1 1-.002-5.154A2.577 2.577 0 0 1 16 19.969z"/>
<path class="path2" d="M25.625 9.812h-4.812l-2.062-2.75h-5.5l-2.062 2.75H6.375C5.618 9.812 5 10.43 5 11.188v12.375c0 .756.618 1.375 1.375 1.375h19.25c.757 0 1.375-.617 1.375-1.375V11.188c0-.758-.618-1.376-1.375-1.376zM16 23.477a6.103 6.103 0 1 1 .001-12.205A6.103 6.103 0 0 1 16 23.477zm9.625-10.399h-2.75v-1.375h2.75v1.375z"/>
</g>
<g id="icon-camera2">
<g>
	<path d="M55.201,15.5h-8.524l-4-10H17.323l-4,10H12v-5H6v5H4.799C2.152,15.5,0,17.652,0,20.299v29.368
		C0,52.332,2.168,54.5,4.833,54.5h50.334c2.665,0,4.833-2.168,4.833-4.833V20.299C60,17.652,57.848,15.5,55.201,15.5z M8,12.5h2v3H8
		V12.5z M58,49.667c0,1.563-1.271,2.833-2.833,2.833H4.833C3.271,52.5,2,51.229,2,49.667V20.299C2,18.756,3.256,17.5,4.799,17.5H6h6
		h2.677l4-10h22.646l4,10h9.878c1.543,0,2.799,1.256,2.799,2.799V49.667z"/>
	<path d="M30,14.5c-9.925,0-18,8.075-18,18s8.075,18,18,18s18-8.075,18-18S39.925,14.5,30,14.5z M30,48.5c-8.822,0-16-7.178-16-16
		s7.178-16,16-16s16,7.178,16,16S38.822,48.5,30,48.5z"/>
	<path d="M30,20.5c-6.617,0-12,5.383-12,12s5.383,12,12,12s12-5.383,12-12S36.617,20.5,30,20.5z M30,42.5c-5.514,0-10-4.486-10-10
		s4.486-10,10-10s10,4.486,10,10S35.514,42.5,30,42.5z"/>
	<path d="M52,19.5c-2.206,0-4,1.794-4,4s1.794,4,4,4s4-1.794,4-4S54.206,19.5,52,19.5z M52,25.5c-1.103,0-2-0.897-2-2s0.897-2,2-2
		s2,0.897,2,2S53.103,25.5,52,25.5z"/>
</g>

</g>
</defs>
</svg>